{"title":"The 10th kingdom 2000 DVDrip English Klam","uid":6135746,"size":5261079484,"categoryP":"video","categoryS":"movies","magnet":"?xt=urn:btih:9a19803b31cf445d8828a1d923cbbb20f9eb72fa&amp;dn=The+10th+kingdom+2000+DVDrip+English+Klam&amp;tr=udp%3A%2F%2Ftracker.openbittorrent.com%3A80&amp;tr=udp%3A%2F%2Fopen.demonii.com%3A1337&amp;tr=udp%3A%2F%2Ftracker.coppersurfer.tk%3A6969&amp;tr=udp%3A%2F%2Fexodus.desync.com%3A6969","seeders":21,"leechers":2,"uploader":"Klambake","files":-1,"time":1296298184,"description":"With: Kimberly Williams, Scott Cohen and John Larroquette\n\nA young woman named Virginia and her father, Tony are lured into a land where fairy tales are real! But the adventure is only beginning for the longer they stay in fairy tale land the more their lives become one.\n &lt;a href=&quot;\nhttp://www.imdb.com/title/http://bayimg.com/&quot; rel=&quot;nofollow&quot; target=&quot;_NEW&quot;&gt;\nhttp://www.imdb.com/title/http://bayimg.com/&lt;/a&gt;\n\nGeneral:\n\nComplete name                    : The 10th kingdom\\Part 01One.avi\nFormat                           : AVI\nFormat/Info                      : Audio Video Interleave\nFile size                        : 1.96 GiB\nDuration                         : 2h 47mn\nOverall bit rate                 : 1 682 Kbps\n\nVideo:\n\nFormat                           : MPEG-4 Visual\nFormat profile                   : Simple@L3\nFormat settings, BVOP            : No\nFormat settings, QPel            : No\nFormat settings, GMC             : No warppoints\nFormat settings, Matrix          : Default (H.263)\nCodec ID                         : XVID\nCodec ID/Hint                    : XviD\nDuration                         : 2h 47mn\nBit rate                         : 1 479 Kbps\nWidth                            : 640 pixels\nHeight                           : 480 pixels\nDisplay aspect ratio             : 4:3\nFrame rate                       : 25.000 fps\nColor space                      : YUV\nChroma subsampling               : 4:2:0\nBit depth                        : 8 bits\nScan type                        : Progressive\nBits/(Pixel*Frame)               : 0.193\nStream size                      : 1.73 GiB (88%)\nWriting library                  : XviD 1.1.2 (UTC 2006-11-01)\n\nAudio:\n\nFormat                           : AC-3\nFormat/Info                      : Audio Coding 3\nMode extension                   : CM (complete main)\nCodec ID                         : 2000\nDuration                         : 2h 47mn\nBit rate mode                    : Constant\nBit rate                         : 192 Kbps\nChannel(s)                       : 2 channels\nChannel positions                : Front: L R\nSampling rate                    : 48.0 KHz\nBit depth                        : 16 bits\nStream size                      : 229 MiB (11%)\nAlignment                        : Aligned on interleaves\nInterleave, duration             : 32 ms (0.80 video frame)","torrent":{"xt":"urn:btih:9a19803b31cf445d8828a1d923cbbb20f9eb72fa","amp;dn":"The+10th+kingdom+2000+DVDrip+English+Klam","amp;tr":["udp%3A%2F%2Ftracker.openbittorrent.com%3A80","udp%3A%2F%2Fopen.demonii.com%3A1337","udp%3A%2F%2Ftracker.coppersurfer.tk%3A6969","udp%3A%2F%2Fexodus.desync.com%3A6969"],"infoHash":"9a19803b31cf445d8828a1d923cbbb20f9eb72fa","infoHashBuffer":{"type":"Buffer","data":[154,25,128,59,49,207,68,93,136,40,161,217,35,203,187,32,249,235,114,250]},"announce":[],"urlList":[]}}